<?xml version="1.0" standalone="no"?>
<!DOCTYPE svg PUBLIC "-//W3C//DTD SVG 20010904//EN"
 "http://www.w3.org/TR/2001/REC-SVG-20010904/DTD/svg10.dtd">
<svg version="1.0" xmlns="http://www.w3.org/2000/svg"
 width="500.000000pt" height="500.000000pt" viewBox="0 0 500.000000 500.000000"
 preserveAspectRatio="xMidYMid meet">

<g transform="translate(0.000000,500.000000) scale(0.100000,-0.100000)"
fill="#000000" stroke="none">
<path d="M2445 4011 c-224 -53 -416 -160 -603 -336 -200 -189 -339 -432 -381
-669 -23 -125 -12 -309 26 -447 l15 -56 41 44 c58 63 108 87 182 88 45 0 70
-6 99 -23 l39 -23 22 21 c11 11 24 20 28 20 4 0 7 -38 7 -85 0 -47 -4 -85 -8
-85 -4 0 -14 16 -21 36 -31 84 -103 131 -189 121 -57 -6 -105 -53 -122 -118
-22 -81 -1 -393 25 -368 2 3 -1 37 -6 77 -6 41 -9 78 -7 84 2 6 27 -18 55 -53
28 -35 74 -89 101 -119 l49 -54 18 28 c12 18 18 47 19 89 l1 62 -50 6 c-29 3
6 6 85 6 74 0 117 -3 95 -6 -40 -6 -40 -7 -45 -56 -7 -61 -20 -85 -65 -122
l-35 -29 94 -62 c117 -78 205 -118 326 -149 241 -61 490 -32 725 84 73 36 215
124 214 133 0 3 -18 17 -40 33 -67 46 -129 167 -129 253 0 17 9 62 21 99 42
136 172 223 293 196 70 -16 142 -72 181 -143 l31 -57 66 127 c60 114 138 315
138 354 0 9 -109 134 -242 280 -134 145 -266 290 -295 321 -28 31 -57 57 -64
57 -6 0 -57 -42 -113 -93 -55 -52 -159 -147 -231 -212 -71 -65 -133 -123 -137
-130 -4 -7 60 -85 158 -193 187 -206 179 -183 97 -279 l-44 -52 26 -17 c56
-36 72 -120 33 -169 -12 -15 -39 -35 -60 -45 -38 -17 -39 -18 -15 -24 33 -8
84 -51 102 -87 30 -57 12 -143 -37 -178 -51 -37 -79 -39 -368 -39 -157 1 -269
3 -250 5 60 6 60 6 30 90 l-28 78 -85 3 -85 3 -26 -78 c-14 -43 -26 -81 -26
-85 0 -4 24 -9 53 -11 28 -2 7 -3 -48 -3 -55 -1 -83 1 -63 3 l37 4 96 290 c54
160 99 288 102 286 2 -3 46 -132 96 -288 l93 -284 77 -3 77 -3 0 224 0 225
-54 4 c-120 10 -279 135 -347 273 -31 64 -34 77 -34 165 0 125 26 185 123 279
109 107 202 141 382 141 95 0 100 1 105 23 15 60 71 613 64 622 -5 5 -78 10
-162 12 -121 2 -168 -1 -232 -16z"/>
<path d="M3204 2605 c-17 -9 -42 -35 -55 -58 -22 -38 -24 -56 -27 -180 -3 -85
1 -157 8 -185 12 -50 53 -112 74 -112 6 0 62 51 124 113 l112 114 0 71 c0 105
-17 169 -55 210 -29 32 -38 36 -91 39 -40 3 -69 -1 -90 -12z"/>
<path d="M2687 2583 c-4 -3 -7 -53 -7 -110 l0 -103 64 0 c53 0 70 4 91 23 29
24 42 83 31 139 -12 61 -18 63 -79 28 -50 -28 -86 -33 -72 -10 6 10 -4 40 -14
40 -4 0 -11 -3 -14 -7z"/>
<path d="M2176 2366 c-20 -63 -36 -117 -36 -120 0 -3 34 -6 75 -6 55 0 75 3
75 13 0 14 -67 217 -74 224 -2 2 -20 -47 -40 -111z"/>
<path d="M2685 2348 c-3 -8 -4 -75 -3 -149 l3 -134 29 -3 c46 -6 113 7 136 26
45 38 45 192 -1 238 -31 30 -154 47 -164 22z"/>
<path d="M3080 1665 c-7 -8 -8 -15 -2 -15 5 0 15 7 22 15 7 8 8 15 2 15 -5 0
-15 -7 -22 -15z"/>
<path d="M1542 1543 l2 -88 3 74 4 74 50 -72 c28 -39 52 -71 55 -71 2 0 3 39
2 88 l-2 87 -5 -74 -6 -74 -48 71 c-26 40 -49 72 -52 72 -3 0 -4 -39 -3 -87z"/>
<path d="M1790 1567 c0 -78 17 -107 64 -107 51 0 66 24 64 106 l-1 69 -6 -73
c-6 -76 -16 -92 -57 -92 -34 0 -45 24 -46 94 -1 36 -5 66 -9 66 -5 0 -9 -28
-9 -63z"/>
<path d="M2052 1623 c27 -4 27 -6 31 -86 l3 -82 2 82 2 82 33 4 c17 2 3 4 -33
4 -36 0 -53 -2 -38 -4z"/>
<path d="M2262 1543 c1 -49 3 -71 5 -50 4 31 8 37 27 37 16 0 29 -11 42 -35
10 -19 22 -35 27 -35 5 0 -1 16 -12 36 -20 33 -20 38 -6 54 18 20 20 51 3 68
-7 7 -29 12 -50 12 l-38 0 2 -87z m78 62 c6 -8 9 -23 5 -35 -5 -15 -15 -20
-41 -20 -32 0 -34 2 -34 35 0 32 3 35 29 35 16 0 34 -7 41 -15z"/>
<path d="M2494 1545 c0 -49 1 -71 3 -48 2 23 2 64 0 90 -2 26 -3 8 -3 -42z"/>
<path d="M2644 1609 c-12 -14 -19 -36 -19 -64 0 -59 25 -86 79 -83 41 1 41 1
6 5 -50 6 -70 28 -70 78 0 51 20 72 75 78 l40 4 -46 1 c-35 2 -50 -3 -65 -19z"/>
<path d="M2860 1545 c0 -50 4 -85 10 -85 6 0 10 35 10 85 0 50 -4 85 -10 85
-6 0 -10 -35 -10 -85z"/>
<path d="M3034 1622 c-6 -4 -16 -17 -23 -29 -31 -59 5 -133 65 -133 48 0 74
29 74 83 0 59 -22 87 -68 87 -20 0 -42 -4 -48 -8z m90 -24 c22 -31 20 -84 -4
-108 -36 -36 -84 -24 -100 24 -11 35 0 83 23 98 24 15 66 8 81 -14z"/>
<path d="M3282 1543 l2 -88 5 75 6 75 42 -67 c23 -36 47 -69 53 -73 7 -4 9 23
8 82 l-2 88 -5 -74 -6 -74 -48 71 c-26 40 -49 72 -52 72 -3 0 -4 -39 -3 -87z"/>
</g>
</svg>
